<?xml version="1.0" encoding="utf-8"?>
<svg xmlns="http://www.w3.org/2000/svg" xmlns:xlink="http://www.w3.org/1999/xlink" width="600" height="400" viewBox="0 0 2400 1600">
<defs>
  <clipPath id="clip9000">
    <rect x="0" y="0" width="2400" height="1600"/>
  </clipPath>
</defs>
<path clip-path="url(#clip9000)" d="
M0 1600 L2400 1600 L2400 0 L0 0  Z
  " fill="#ffffff" fill-rule="evenodd" fill-opacity="1"/>
<defs>
  <clipPath id="clip9001">
    <rect x="480" y="0" width="1681" height="1600"/>
  </clipPath>
</defs>
<path clip-path="url(#clip9000)" d="
M291.416 1487.47 L2352.76 1487.47 L2352.76 121.675 L291.416 121.675  Z
  " fill="#ffffff" fill-rule="evenodd" fill-opacity="1"/>
<defs>
  <clipPath id="clip9002">
    <rect x="291" y="121" width="2062" height="1367"/>
  </clipPath>
</defs>
<polyline clip-path="url(#clip9002)" style="stroke:#000000; stroke-width:2; stroke-opacity:0.1; fill:none" points="
  565.829,1487.47 565.829,121.675 
  "/>
<polyline clip-path="url(#clip9002)" style="stroke:#000000; stroke-width:2; stroke-opacity:0.1; fill:none" points="
  997.976,1487.47 997.976,121.675 
  "/>
<polyline clip-path="url(#clip9002)" style="stroke:#000000; stroke-width:2; stroke-opacity:0.1; fill:none" points="
  1430.12,1487.47 1430.12,121.675 
  "/>
<polyline clip-path="url(#clip9002)" style="stroke:#000000; stroke-width:2; stroke-opacity:0.1; fill:none" points="
  1862.27,1487.47 1862.27,121.675 
  "/>
<polyline clip-path="url(#clip9002)" style="stroke:#000000; stroke-width:2; stroke-opacity:0.1; fill:none" points="
  2294.42,1487.47 2294.42,121.675 
  "/>
<polyline clip-path="url(#clip9002)" style="stroke:#000000; stroke-width:2; stroke-opacity:0.1; fill:none" points="
  291.416,1449.36 2352.76,1449.36 
  "/>
<polyline clip-path="url(#clip9002)" style="stroke:#000000; stroke-width:2; stroke-opacity:0.1; fill:none" points="
  291.416,1071.95 2352.76,1071.95 
  "/>
<polyline clip-path="url(#clip9002)" style="stroke:#000000; stroke-width:2; stroke-opacity:0.1; fill:none" points="
  291.416,694.532 2352.76,694.532 
  "/>
<polyline clip-path="url(#clip9002)" style="stroke:#000000; stroke-width:2; stroke-opacity:0.1; fill:none" points="
  291.416,317.116 2352.76,317.116 
  "/>
<polyline clip-path="url(#clip9000)" style="stroke:#000000; stroke-width:4; stroke-opacity:1; fill:none" points="
  291.416,1487.47 2352.76,1487.47 
  "/>
<polyline clip-path="url(#clip9000)" style="stroke:#000000; stroke-width:4; stroke-opacity:1; fill:none" points="
  291.416,1487.47 291.416,121.675 
  "/>
<polyline clip-path="url(#clip9000)" style="stroke:#000000; stroke-width:4; stroke-opacity:1; fill:none" points="
  565.829,1487.47 565.829,1471.09 
  "/>
<polyline clip-path="url(#clip9000)" style="stroke:#000000; stroke-width:4; stroke-opacity:1; fill:none" points="
  997.976,1487.47 997.976,1471.09 
  "/>
<polyline clip-path="url(#clip9000)" style="stroke:#000000; stroke-width:4; stroke-opacity:1; fill:none" points="
  1430.12,1487.47 1430.12,1471.09 
  "/>
<polyline clip-path="url(#clip9000)" style="stroke:#000000; stroke-width:4; stroke-opacity:1; fill:none" points="
  1862.27,1487.47 1862.27,1471.09 
  "/>
<polyline clip-path="url(#clip9000)" style="stroke:#000000; stroke-width:4; stroke-opacity:1; fill:none" points="
  2294.42,1487.47 2294.42,1471.09 
  "/>
<polyline clip-path="url(#clip9000)" style="stroke:#000000; stroke-width:4; stroke-opacity:1; fill:none" points="
  291.416,1449.36 316.152,1449.36 
  "/>
<polyline clip-path="url(#clip9000)" style="stroke:#000000; stroke-width:4; stroke-opacity:1; fill:none" points="
  291.416,1071.95 316.152,1071.95 
  "/>
<polyline clip-path="url(#clip9000)" style="stroke:#000000; stroke-width:4; stroke-opacity:1; fill:none" points="
  291.416,694.532 316.152,694.532 
  "/>
<polyline clip-path="url(#clip9000)" style="stroke:#000000; stroke-width:4; stroke-opacity:1; fill:none" points="
  291.416,317.116 316.152,317.116 
  "/>
<g clip-path="url(#clip9000)">
<text style="fill:#000000; fill-opacity:1; font-family:Arial,Helvetica Neue,Helvetica,sans-serif; font-size:48px; text-anchor:middle;" transform="rotate(0, 565.829, 1541.47)" x="565.829" y="1541.47">200</text>
</g>
<g clip-path="url(#clip9000)">
<text style="fill:#000000; fill-opacity:1; font-family:Arial,Helvetica Neue,Helvetica,sans-serif; font-size:48px; text-anchor:middle;" transform="rotate(0, 997.976, 1541.47)" x="997.976" y="1541.47">400</text>
</g>
<g clip-path="url(#clip9000)">
<text style="fill:#000000; fill-opacity:1; font-family:Arial,Helvetica Neue,Helvetica,sans-serif; font-size:48px; text-anchor:middle;" transform="rotate(0, 1430.12, 1541.47)" x="1430.12" y="1541.47">600</text>
</g>
<g clip-path="url(#clip9000)">
<text style="fill:#000000; fill-opacity:1; font-family:Arial,Helvetica Neue,Helvetica,sans-serif; font-size:48px; text-anchor:middle;" transform="rotate(0, 1862.27, 1541.47)" x="1862.27" y="1541.47">800</text>
</g>
<g clip-path="url(#clip9000)">
<text style="fill:#000000; fill-opacity:1; font-family:Arial,Helvetica Neue,Helvetica,sans-serif; font-size:48px; text-anchor:middle;" transform="rotate(0, 2294.42, 1541.47)" x="2294.42" y="1541.47">1000</text>
</g>
<g clip-path="url(#clip9000)">
<text style="fill:#000000; fill-opacity:1; font-family:Arial,Helvetica Neue,Helvetica,sans-serif; font-size:48px; text-anchor:end;" transform="rotate(0, 267.416, 1466.86)" x="267.416" y="1466.86">0</text>
</g>
<g clip-path="url(#clip9000)">
<text style="fill:#000000; fill-opacity:1; font-family:Arial,Helvetica Neue,Helvetica,sans-serif; font-size:48px; text-anchor:start;" transform="rotate(0, 97.131, 1095.68)" x="97.131" y="1095.68">5.0×10</text>
</g>
<g clip-path="url(#clip9000)">
<text style="fill:#000000; fill-opacity:1; font-family:Arial,Helvetica Neue,Helvetica,sans-serif; font-size:38px; text-anchor:start;" transform="rotate(0, 245.672, 1068.27)" x="245.672" y="1068.27">7</text>
</g>
<g clip-path="url(#clip9000)">
<text style="fill:#000000; fill-opacity:1; font-family:Arial,Helvetica Neue,Helvetica,sans-serif; font-size:48px; text-anchor:start;" transform="rotate(0, 97.131, 718.26)" x="97.131" y="718.26">1.0×10</text>
</g>
<g clip-path="url(#clip9000)">
<text style="fill:#000000; fill-opacity:1; font-family:Arial,Helvetica Neue,Helvetica,sans-serif; font-size:38px; text-anchor:start;" transform="rotate(0, 245.672, 690.849)" x="245.672" y="690.849">8</text>
</g>
<g clip-path="url(#clip9000)">
<text style="fill:#000000; fill-opacity:1; font-family:Arial,Helvetica Neue,Helvetica,sans-serif; font-size:48px; text-anchor:start;" transform="rotate(0, 97.131, 340.843)" x="97.131" y="340.843">1.5×10</text>
</g>
<g clip-path="url(#clip9000)">
<text style="fill:#000000; fill-opacity:1; font-family:Arial,Helvetica Neue,Helvetica,sans-serif; font-size:38px; text-anchor:start;" transform="rotate(0, 245.672, 313.433)" x="245.672" y="313.433">8</text>
</g>
<g clip-path="url(#clip9000)">
<text style="fill:#000000; fill-opacity:1; font-family:Arial,Helvetica Neue,Helvetica,sans-serif; font-size:84px; text-anchor:middle;" transform="rotate(0, 1322.09, 73.2)" x="1322.09" y="73.2">pairwise time of 100 x Y matrix</text>
</g>
<polyline clip-path="url(#clip9002)" style="stroke:#009af9; stroke-width:4; stroke-opacity:1; fill:none" points="
  349.756,1436.77 565.829,1397.1 781.903,1332.59 997.976,1247.26 1214.05,1092.44 1430.12,965.452 1646.2,786.887 1862.27,592.378 2078.34,344.912 2294.42,160.33 
  
  "/>
<polyline clip-path="url(#clip9002)" style="stroke:#e26f46; stroke-width:4; stroke-opacity:1; fill:none" points="
  349.756,1448.82 565.829,1447.6 781.903,1445.67 997.976,1441.77 1214.05,1438.7 1430.12,1434.76 1646.2,1429.23 1862.27,1424.38 2078.34,1418.2 2294.42,1411.68 
  
  "/>
<path clip-path="url(#clip9000)" d="
M1751.91 386.635 L2280.76 386.635 L2280.76 205.195 L1751.91 205.195  Z
  " fill="#ffffff" fill-rule="evenodd" fill-opacity="1"/>
<polyline clip-path="url(#clip9000)" style="stroke:#000000; stroke-width:4; stroke-opacity:1; fill:none" points="
  1751.91,386.635 2280.76,386.635 2280.76,205.195 1751.91,205.195 1751.91,386.635 
  "/>
<polyline clip-path="url(#clip9000)" style="stroke:#009af9; stroke-width:4; stroke-opacity:1; fill:none" points="
  1775.91,265.675 1919.91,265.675 
  "/>
<g clip-path="url(#clip9000)">
<text style="fill:#000000; fill-opacity:1; font-family:Arial,Helvetica Neue,Helvetica,sans-serif; font-size:48px; text-anchor:start;" transform="rotate(0, 1943.91, 283.175)" x="1943.91" y="283.175">sparse matrix</text>
</g>
<polyline clip-path="url(#clip9000)" style="stroke:#e26f46; stroke-width:4; stroke-opacity:1; fill:none" points="
  1775.91,326.155 1919.91,326.155 
  "/>
<g clip-path="url(#clip9000)">
<text style="fill:#000000; fill-opacity:1; font-family:Arial,Helvetica Neue,Helvetica,sans-serif; font-size:48px; text-anchor:start;" transform="rotate(0, 1943.91, 343.655)" x="1943.91" y="343.655">dense matrix</text>
</g>
</svg>
