<?xml version="1.0" encoding="utf-8"?>
<svg xmlns="http://www.w3.org/2000/svg" xmlns:xlink="http://www.w3.org/1999/xlink" width="600" height="400" viewBox="0 0 2400 1600">
<defs>
  <clipPath id="clip1500">
    <rect x="0" y="0" width="2400" height="1600"/>
  </clipPath>
</defs>
<path clip-path="url(#clip1500)" d="
M0 1600 L2400 1600 L2400 0 L0 0  Z
  " fill="#ffffff" fill-rule="evenodd" fill-opacity="1"/>
<defs>
  <clipPath id="clip1501">
    <rect x="480" y="0" width="1681" height="1600"/>
  </clipPath>
</defs>
<path clip-path="url(#clip1500)" d="
M194.041 1487.47 L2352.76 1487.47 L2352.76 47.2441 L194.041 47.2441  Z
  " fill="#ffffff" fill-rule="evenodd" fill-opacity="1"/>
<defs>
  <clipPath id="clip1502">
    <rect x="194" y="47" width="2160" height="1441"/>
  </clipPath>
</defs>
<polyline clip-path="url(#clip1502)" style="stroke:#000000; stroke-width:2; stroke-opacity:0.1; fill:none" points="
  536.037,1487.47 536.037,47.2441 
  "/>
<polyline clip-path="url(#clip1502)" style="stroke:#000000; stroke-width:2; stroke-opacity:0.1; fill:none" points="
  887.162,1487.47 887.162,47.2441 
  "/>
<polyline clip-path="url(#clip1502)" style="stroke:#000000; stroke-width:2; stroke-opacity:0.1; fill:none" points="
  1238.29,1487.47 1238.29,47.2441 
  "/>
<polyline clip-path="url(#clip1502)" style="stroke:#000000; stroke-width:2; stroke-opacity:0.1; fill:none" points="
  1589.41,1487.47 1589.41,47.2441 
  "/>
<polyline clip-path="url(#clip1502)" style="stroke:#000000; stroke-width:2; stroke-opacity:0.1; fill:none" points="
  1940.54,1487.47 1940.54,47.2441 
  "/>
<polyline clip-path="url(#clip1502)" style="stroke:#000000; stroke-width:2; stroke-opacity:0.1; fill:none" points="
  2291.66,1487.47 2291.66,47.2441 
  "/>
<polyline clip-path="url(#clip1502)" style="stroke:#000000; stroke-width:2; stroke-opacity:0.1; fill:none" points="
  194.041,1293.02 2352.76,1293.02 
  "/>
<polyline clip-path="url(#clip1502)" style="stroke:#000000; stroke-width:2; stroke-opacity:0.1; fill:none" points="
  194.041,958.006 2352.76,958.006 
  "/>
<polyline clip-path="url(#clip1502)" style="stroke:#000000; stroke-width:2; stroke-opacity:0.1; fill:none" points="
  194.041,622.992 2352.76,622.992 
  "/>
<polyline clip-path="url(#clip1502)" style="stroke:#000000; stroke-width:2; stroke-opacity:0.1; fill:none" points="
  194.041,287.977 2352.76,287.977 
  "/>
<polyline clip-path="url(#clip1500)" style="stroke:#000000; stroke-width:4; stroke-opacity:1; fill:none" points="
  194.041,1487.47 2352.76,1487.47 
  "/>
<polyline clip-path="url(#clip1500)" style="stroke:#000000; stroke-width:4; stroke-opacity:1; fill:none" points="
  194.041,1487.47 194.041,47.2441 
  "/>
<polyline clip-path="url(#clip1500)" style="stroke:#000000; stroke-width:4; stroke-opacity:1; fill:none" points="
  536.037,1487.47 536.037,1470.19 
  "/>
<polyline clip-path="url(#clip1500)" style="stroke:#000000; stroke-width:4; stroke-opacity:1; fill:none" points="
  887.162,1487.47 887.162,1470.19 
  "/>
<polyline clip-path="url(#clip1500)" style="stroke:#000000; stroke-width:4; stroke-opacity:1; fill:none" points="
  1238.29,1487.47 1238.29,1470.19 
  "/>
<polyline clip-path="url(#clip1500)" style="stroke:#000000; stroke-width:4; stroke-opacity:1; fill:none" points="
  1589.41,1487.47 1589.41,1470.19 
  "/>
<polyline clip-path="url(#clip1500)" style="stroke:#000000; stroke-width:4; stroke-opacity:1; fill:none" points="
  1940.54,1487.47 1940.54,1470.19 
  "/>
<polyline clip-path="url(#clip1500)" style="stroke:#000000; stroke-width:4; stroke-opacity:1; fill:none" points="
  2291.66,1487.47 2291.66,1470.19 
  "/>
<polyline clip-path="url(#clip1500)" style="stroke:#000000; stroke-width:4; stroke-opacity:1; fill:none" points="
  194.041,1293.02 219.946,1293.02 
  "/>
<polyline clip-path="url(#clip1500)" style="stroke:#000000; stroke-width:4; stroke-opacity:1; fill:none" points="
  194.041,958.006 219.946,958.006 
  "/>
<polyline clip-path="url(#clip1500)" style="stroke:#000000; stroke-width:4; stroke-opacity:1; fill:none" points="
  194.041,622.992 219.946,622.992 
  "/>
<polyline clip-path="url(#clip1500)" style="stroke:#000000; stroke-width:4; stroke-opacity:1; fill:none" points="
  194.041,287.977 219.946,287.977 
  "/>
<g clip-path="url(#clip1500)">
<text style="fill:#000000; fill-opacity:1; font-family:Arial,Helvetica Neue,Helvetica,sans-serif; font-size:48px; text-anchor:middle;" transform="rotate(0, 536.037, 1541.47)" x="536.037" y="1541.47">5</text>
</g>
<g clip-path="url(#clip1500)">
<text style="fill:#000000; fill-opacity:1; font-family:Arial,Helvetica Neue,Helvetica,sans-serif; font-size:48px; text-anchor:middle;" transform="rotate(0, 887.162, 1541.47)" x="887.162" y="1541.47">10</text>
</g>
<g clip-path="url(#clip1500)">
<text style="fill:#000000; fill-opacity:1; font-family:Arial,Helvetica Neue,Helvetica,sans-serif; font-size:48px; text-anchor:middle;" transform="rotate(0, 1238.29, 1541.47)" x="1238.29" y="1541.47">15</text>
</g>
<g clip-path="url(#clip1500)">
<text style="fill:#000000; fill-opacity:1; font-family:Arial,Helvetica Neue,Helvetica,sans-serif; font-size:48px; text-anchor:middle;" transform="rotate(0, 1589.41, 1541.47)" x="1589.41" y="1541.47">20</text>
</g>
<g clip-path="url(#clip1500)">
<text style="fill:#000000; fill-opacity:1; font-family:Arial,Helvetica Neue,Helvetica,sans-serif; font-size:48px; text-anchor:middle;" transform="rotate(0, 1940.54, 1541.47)" x="1940.54" y="1541.47">25</text>
</g>
<g clip-path="url(#clip1500)">
<text style="fill:#000000; fill-opacity:1; font-family:Arial,Helvetica Neue,Helvetica,sans-serif; font-size:48px; text-anchor:middle;" transform="rotate(0, 2291.66, 1541.47)" x="2291.66" y="1541.47">30</text>
</g>
<g clip-path="url(#clip1500)">
<text style="fill:#000000; fill-opacity:1; font-family:Arial,Helvetica Neue,Helvetica,sans-serif; font-size:48px; text-anchor:end;" transform="rotate(0, 170.041, 1310.52)" x="170.041" y="1310.52">2300</text>
</g>
<g clip-path="url(#clip1500)">
<text style="fill:#000000; fill-opacity:1; font-family:Arial,Helvetica Neue,Helvetica,sans-serif; font-size:48px; text-anchor:end;" transform="rotate(0, 170.041, 975.506)" x="170.041" y="975.506">2400</text>
</g>
<g clip-path="url(#clip1500)">
<text style="fill:#000000; fill-opacity:1; font-family:Arial,Helvetica Neue,Helvetica,sans-serif; font-size:48px; text-anchor:end;" transform="rotate(0, 170.041, 640.492)" x="170.041" y="640.492">2500</text>
</g>
<g clip-path="url(#clip1500)">
<text style="fill:#000000; fill-opacity:1; font-family:Arial,Helvetica Neue,Helvetica,sans-serif; font-size:48px; text-anchor:end;" transform="rotate(0, 170.041, 305.477)" x="170.041" y="305.477">2600</text>
</g>
<polyline clip-path="url(#clip1502)" style="stroke:#009af9; stroke-width:4; stroke-opacity:1; fill:none" points="
  255.137,88.0053 325.362,94.136 395.587,153.92 465.812,190.405 536.037,975.21 606.262,846.302 676.487,373.278 746.712,913.317 816.937,461.046 887.162,520.243 
  957.386,460.899 1027.61,354.045 1097.84,1142.24 1168.06,618.644 1238.29,521.797 1308.51,595.926 1378.74,490.936 1448.96,834.123 1519.19,562.79 1589.41,719.614 
  1659.64,836.831 1729.86,723.749 1800.09,516.701 1870.31,811.962 1940.54,907.033 2010.76,846.062 2080.99,920.318 2151.21,850.264 2221.44,820.54 2291.66,1159.32 
  
  "/>
<polyline clip-path="url(#clip1502)" style="stroke:#e26f46; stroke-width:4; stroke-opacity:1; fill:none" points="
  255.137,88.0053 325.362,144.984 395.587,213.522 465.812,237.461 536.037,266.446 606.262,179.127 676.487,397.852 746.712,334.729 816.937,310.012 887.162,780.056 
  957.386,284.863 1027.61,493.221 1097.84,473.985 1168.06,913.666 1238.29,507.685 1308.51,547.299 1378.74,1014.32 1448.96,526.184 1519.19,1417.7 1589.41,716.302 
  1659.64,801.106 1729.86,698.679 1800.09,734.297 1870.31,880.456 1940.54,1446.71 
  "/>
<path clip-path="url(#clip1500)" d="
M1989.93 312.204 L2280.76 312.204 L2280.76 130.764 L1989.93 130.764  Z
  " fill="#ffffff" fill-rule="evenodd" fill-opacity="1"/>
<polyline clip-path="url(#clip1500)" style="stroke:#000000; stroke-width:4; stroke-opacity:1; fill:none" points="
  1989.93,312.204 2280.76,312.204 2280.76,130.764 1989.93,130.764 1989.93,312.204 
  "/>
<polyline clip-path="url(#clip1500)" style="stroke:#009af9; stroke-width:4; stroke-opacity:1; fill:none" points="
  2013.93,191.244 2157.93,191.244 
  "/>
<g clip-path="url(#clip1500)">
<text style="fill:#000000; fill-opacity:1; font-family:Arial,Helvetica Neue,Helvetica,sans-serif; font-size:48px; text-anchor:start;" transform="rotate(0, 2181.93, 208.744)" x="2181.93" y="208.744">y1</text>
</g>
<polyline clip-path="url(#clip1500)" style="stroke:#e26f46; stroke-width:4; stroke-opacity:1; fill:none" points="
  2013.93,251.724 2157.93,251.724 
  "/>
<g clip-path="url(#clip1500)">
<text style="fill:#000000; fill-opacity:1; font-family:Arial,Helvetica Neue,Helvetica,sans-serif; font-size:48px; text-anchor:start;" transform="rotate(0, 2181.93, 269.224)" x="2181.93" y="269.224">y2</text>
</g>
</svg>
