<?xml version="1.0" encoding="utf-8"?>
<svg xmlns="http://www.w3.org/2000/svg" xmlns:xlink="http://www.w3.org/1999/xlink" width="600" height="400" viewBox="0 0 2400 1600">
<defs>
  <clipPath id="clip0600">
    <rect x="0" y="0" width="2400" height="1600"/>
  </clipPath>
</defs>
<path clip-path="url(#clip0600)" d="
M0 1600 L2400 1600 L2400 0 L0 0  Z
  " fill="#ffffff" fill-rule="evenodd" fill-opacity="1"/>
<defs>
  <clipPath id="clip0601">
    <rect x="480" y="0" width="1681" height="1600"/>
  </clipPath>
</defs>
<path clip-path="url(#clip0600)" d="
M180.66 1487.47 L2352.76 1487.47 L2352.76 47.2441 L180.66 47.2441  Z
  " fill="#ffffff" fill-rule="evenodd" fill-opacity="1"/>
<defs>
  <clipPath id="clip0602">
    <rect x="180" y="47" width="2173" height="1441"/>
  </clipPath>
</defs>
<polyline clip-path="url(#clip0602)" style="stroke:#000000; stroke-width:2; stroke-opacity:0.1; fill:none" points="
  180.66,1487.47 2352.76,1487.47 
  "/>
<polyline clip-path="url(#clip0602)" style="stroke:#000000; stroke-width:2; stroke-opacity:0.1; fill:none" points="
  180.66,1059.98 2352.76,1059.98 
  "/>
<polyline clip-path="url(#clip0602)" style="stroke:#000000; stroke-width:2; stroke-opacity:0.1; fill:none" points="
  180.66,632.482 2352.76,632.482 
  "/>
<polyline clip-path="url(#clip0602)" style="stroke:#000000; stroke-width:2; stroke-opacity:0.1; fill:none" points="
  180.66,204.985 2352.76,204.985 
  "/>
<polyline clip-path="url(#clip0600)" style="stroke:#000000; stroke-width:4; stroke-opacity:1; fill:none" points="
  180.66,1487.47 2352.76,1487.47 
  "/>
<polyline clip-path="url(#clip0600)" style="stroke:#000000; stroke-width:4; stroke-opacity:1; fill:none" points="
  180.66,1487.47 180.66,47.2441 
  "/>
<polyline clip-path="url(#clip0600)" style="stroke:#ffffff; stroke-width:4; stroke-opacity:1; fill:none" points="
  316.416,1487.47 316.416,1470.19 
  "/>
<polyline clip-path="url(#clip0600)" style="stroke:#ffffff; stroke-width:4; stroke-opacity:1; fill:none" points="
  587.928,1487.47 587.928,1470.19 
  "/>
<polyline clip-path="url(#clip0600)" style="stroke:#ffffff; stroke-width:4; stroke-opacity:1; fill:none" points="
  859.44,1487.47 859.44,1470.19 
  "/>
<polyline clip-path="url(#clip0600)" style="stroke:#ffffff; stroke-width:4; stroke-opacity:1; fill:none" points="
  1130.95,1487.47 1130.95,1470.19 
  "/>
<polyline clip-path="url(#clip0600)" style="stroke:#ffffff; stroke-width:4; stroke-opacity:1; fill:none" points="
  1402.46,1487.47 1402.46,1470.19 
  "/>
<polyline clip-path="url(#clip0600)" style="stroke:#ffffff; stroke-width:4; stroke-opacity:1; fill:none" points="
  1673.98,1487.47 1673.98,1470.19 
  "/>
<polyline clip-path="url(#clip0600)" style="stroke:#ffffff; stroke-width:4; stroke-opacity:1; fill:none" points="
  1945.49,1487.47 1945.49,1470.19 
  "/>
<polyline clip-path="url(#clip0600)" style="stroke:#ffffff; stroke-width:4; stroke-opacity:1; fill:none" points="
  2217,1487.47 2217,1470.19 
  "/>
<polyline clip-path="url(#clip0600)" style="stroke:#000000; stroke-width:4; stroke-opacity:1; fill:none" points="
  180.66,1487.47 206.725,1487.47 
  "/>
<polyline clip-path="url(#clip0600)" style="stroke:#000000; stroke-width:4; stroke-opacity:1; fill:none" points="
  180.66,1059.98 206.725,1059.98 
  "/>
<polyline clip-path="url(#clip0600)" style="stroke:#000000; stroke-width:4; stroke-opacity:1; fill:none" points="
  180.66,632.482 206.725,632.482 
  "/>
<polyline clip-path="url(#clip0600)" style="stroke:#000000; stroke-width:4; stroke-opacity:1; fill:none" points="
  180.66,204.985 206.725,204.985 
  "/>
<g clip-path="url(#clip0600)">
<text style="fill:#000000; fill-opacity:1; font-family:Arial,Helvetica Neue,Helvetica,sans-serif; font-size:48px; text-anchor:middle;" transform="rotate(0, 316.416, 1541.47)" x="316.416" y="1541.47">7</text>
</g>
<g clip-path="url(#clip0600)">
<text style="fill:#000000; fill-opacity:1; font-family:Arial,Helvetica Neue,Helvetica,sans-serif; font-size:48px; text-anchor:middle;" transform="rotate(0, 587.928, 1541.47)" x="587.928" y="1541.47">4</text>
</g>
<g clip-path="url(#clip0600)">
<text style="fill:#000000; fill-opacity:1; font-family:Arial,Helvetica Neue,Helvetica,sans-serif; font-size:48px; text-anchor:middle;" transform="rotate(0, 859.44, 1541.47)" x="859.44" y="1541.47">6</text>
</g>
<g clip-path="url(#clip0600)">
<text style="fill:#000000; fill-opacity:1; font-family:Arial,Helvetica Neue,Helvetica,sans-serif; font-size:48px; text-anchor:middle;" transform="rotate(0, 1130.95, 1541.47)" x="1130.95" y="1541.47">8</text>
</g>
<g clip-path="url(#clip0600)">
<text style="fill:#000000; fill-opacity:1; font-family:Arial,Helvetica Neue,Helvetica,sans-serif; font-size:48px; text-anchor:middle;" transform="rotate(0, 1402.46, 1541.47)" x="1402.46" y="1541.47">1</text>
</g>
<g clip-path="url(#clip0600)">
<text style="fill:#000000; fill-opacity:1; font-family:Arial,Helvetica Neue,Helvetica,sans-serif; font-size:48px; text-anchor:middle;" transform="rotate(0, 1673.98, 1541.47)" x="1673.98" y="1541.47">2</text>
</g>
<g clip-path="url(#clip0600)">
<text style="fill:#000000; fill-opacity:1; font-family:Arial,Helvetica Neue,Helvetica,sans-serif; font-size:48px; text-anchor:middle;" transform="rotate(0, 1945.49, 1541.47)" x="1945.49" y="1541.47">3</text>
</g>
<g clip-path="url(#clip0600)">
<text style="fill:#000000; fill-opacity:1; font-family:Arial,Helvetica Neue,Helvetica,sans-serif; font-size:48px; text-anchor:middle;" transform="rotate(0, 2217, 1541.47)" x="2217" y="1541.47">5</text>
</g>
<g clip-path="url(#clip0600)">
<text style="fill:#000000; fill-opacity:1; font-family:Arial,Helvetica Neue,Helvetica,sans-serif; font-size:48px; text-anchor:end;" transform="rotate(0, 156.66, 1504.97)" x="156.66" y="1504.97">0.00</text>
</g>
<g clip-path="url(#clip0600)">
<text style="fill:#000000; fill-opacity:1; font-family:Arial,Helvetica Neue,Helvetica,sans-serif; font-size:48px; text-anchor:end;" transform="rotate(0, 156.66, 1077.48)" x="156.66" y="1077.48">0.05</text>
</g>
<g clip-path="url(#clip0600)">
<text style="fill:#000000; fill-opacity:1; font-family:Arial,Helvetica Neue,Helvetica,sans-serif; font-size:48px; text-anchor:end;" transform="rotate(0, 156.66, 649.982)" x="156.66" y="649.982">0.10</text>
</g>
<g clip-path="url(#clip0600)">
<text style="fill:#000000; fill-opacity:1; font-family:Arial,Helvetica Neue,Helvetica,sans-serif; font-size:48px; text-anchor:end;" transform="rotate(0, 156.66, 222.485)" x="156.66" y="222.485">0.15</text>
</g>
<polyline clip-path="url(#clip0602)" style="stroke:#000000; stroke-width:4; stroke-opacity:1; fill:none" points="
  1945.49,1487.47 1945.49,1440.89 2217,1440.89 2217,1487.47 
  "/>
<polyline clip-path="url(#clip0602)" style="stroke:#000000; stroke-width:4; stroke-opacity:1; fill:none" points="
  1673.98,1487.47 1673.98,1419.23 2081.24,1419.23 2081.24,1440.89 
  "/>
<polyline clip-path="url(#clip0602)" style="stroke:#000000; stroke-width:4; stroke-opacity:1; fill:none" points="
  1402.46,1487.47 1402.46,1366.65 1877.61,1366.65 1877.61,1419.23 
  "/>
<polyline clip-path="url(#clip0602)" style="stroke:#000000; stroke-width:4; stroke-opacity:1; fill:none" points="
  587.928,1487.47 587.928,1253.88 859.44,1253.88 859.44,1487.47 
  "/>
<polyline clip-path="url(#clip0602)" style="stroke:#000000; stroke-width:4; stroke-opacity:1; fill:none" points="
  316.416,1487.47 316.416,742.007 723.684,742.007 723.684,1253.88 
  "/>
<polyline clip-path="url(#clip0602)" style="stroke:#000000; stroke-width:4; stroke-opacity:1; fill:none" points="
  1130.95,1487.47 1130.95,656.723 1640.04,656.723 1640.04,1366.65 
  "/>
<polyline clip-path="url(#clip0602)" style="stroke:#000000; stroke-width:4; stroke-opacity:1; fill:none" points="
  520.05,742.007 520.05,47.2441 1385.49,47.2441 1385.49,656.723 
  "/>
</svg>
