<?xml version="1.0" encoding="utf-8"?>
<svg xmlns="http://www.w3.org/2000/svg" xmlns:xlink="http://www.w3.org/1999/xlink" width="600" height="400" viewBox="0 0 2400 1600">
<defs>
  <clipPath id="clip8400">
    <rect x="0" y="0" width="2400" height="1600"/>
  </clipPath>
</defs>
<path clip-path="url(#clip8400)" d="
M0 1600 L2400 1600 L2400 0 L0 0  Z
  " fill="#ffffff" fill-rule="evenodd" fill-opacity="1"/>
<defs>
  <clipPath id="clip8401">
    <rect x="480" y="0" width="1681" height="1600"/>
  </clipPath>
</defs>
<path clip-path="url(#clip8400)" d="
M250.454 1487.47 L2352.76 1487.47 L2352.76 121.675 L250.454 121.675  Z
  " fill="#ffffff" fill-rule="evenodd" fill-opacity="1"/>
<defs>
  <clipPath id="clip8402">
    <rect x="250" y="121" width="2103" height="1367"/>
  </clipPath>
</defs>
<polyline clip-path="url(#clip8402)" style="stroke:#000000; stroke-width:2; stroke-opacity:0.1; fill:none" points="
  530.32,1487.47 530.32,121.675 
  "/>
<polyline clip-path="url(#clip8402)" style="stroke:#000000; stroke-width:2; stroke-opacity:0.1; fill:none" points="
  971.054,1487.47 971.054,121.675 
  "/>
<polyline clip-path="url(#clip8402)" style="stroke:#000000; stroke-width:2; stroke-opacity:0.1; fill:none" points="
  1411.79,1487.47 1411.79,121.675 
  "/>
<polyline clip-path="url(#clip8402)" style="stroke:#000000; stroke-width:2; stroke-opacity:0.1; fill:none" points="
  1852.52,1487.47 1852.52,121.675 
  "/>
<polyline clip-path="url(#clip8402)" style="stroke:#000000; stroke-width:2; stroke-opacity:0.1; fill:none" points="
  2293.26,1487.47 2293.26,121.675 
  "/>
<polyline clip-path="url(#clip8402)" style="stroke:#000000; stroke-width:2; stroke-opacity:0.1; fill:none" points="
  250.454,1448.85 2352.76,1448.85 
  "/>
<polyline clip-path="url(#clip8402)" style="stroke:#000000; stroke-width:2; stroke-opacity:0.1; fill:none" points="
  250.454,1127.38 2352.76,1127.38 
  "/>
<polyline clip-path="url(#clip8402)" style="stroke:#000000; stroke-width:2; stroke-opacity:0.1; fill:none" points="
  250.454,805.911 2352.76,805.911 
  "/>
<polyline clip-path="url(#clip8402)" style="stroke:#000000; stroke-width:2; stroke-opacity:0.1; fill:none" points="
  250.454,484.442 2352.76,484.442 
  "/>
<polyline clip-path="url(#clip8402)" style="stroke:#000000; stroke-width:2; stroke-opacity:0.1; fill:none" points="
  250.454,162.973 2352.76,162.973 
  "/>
<polyline clip-path="url(#clip8400)" style="stroke:#000000; stroke-width:4; stroke-opacity:1; fill:none" points="
  250.454,1487.47 2352.76,1487.47 
  "/>
<polyline clip-path="url(#clip8400)" style="stroke:#000000; stroke-width:4; stroke-opacity:1; fill:none" points="
  250.454,1487.47 250.454,121.675 
  "/>
<polyline clip-path="url(#clip8400)" style="stroke:#000000; stroke-width:4; stroke-opacity:1; fill:none" points="
  530.32,1487.47 530.32,1471.09 
  "/>
<polyline clip-path="url(#clip8400)" style="stroke:#000000; stroke-width:4; stroke-opacity:1; fill:none" points="
  971.054,1487.47 971.054,1471.09 
  "/>
<polyline clip-path="url(#clip8400)" style="stroke:#000000; stroke-width:4; stroke-opacity:1; fill:none" points="
  1411.79,1487.47 1411.79,1471.09 
  "/>
<polyline clip-path="url(#clip8400)" style="stroke:#000000; stroke-width:4; stroke-opacity:1; fill:none" points="
  1852.52,1487.47 1852.52,1471.09 
  "/>
<polyline clip-path="url(#clip8400)" style="stroke:#000000; stroke-width:4; stroke-opacity:1; fill:none" points="
  2293.26,1487.47 2293.26,1471.09 
  "/>
<polyline clip-path="url(#clip8400)" style="stroke:#000000; stroke-width:4; stroke-opacity:1; fill:none" points="
  250.454,1448.85 275.682,1448.85 
  "/>
<polyline clip-path="url(#clip8400)" style="stroke:#000000; stroke-width:4; stroke-opacity:1; fill:none" points="
  250.454,1127.38 275.682,1127.38 
  "/>
<polyline clip-path="url(#clip8400)" style="stroke:#000000; stroke-width:4; stroke-opacity:1; fill:none" points="
  250.454,805.911 275.682,805.911 
  "/>
<polyline clip-path="url(#clip8400)" style="stroke:#000000; stroke-width:4; stroke-opacity:1; fill:none" points="
  250.454,484.442 275.682,484.442 
  "/>
<polyline clip-path="url(#clip8400)" style="stroke:#000000; stroke-width:4; stroke-opacity:1; fill:none" points="
  250.454,162.973 275.682,162.973 
  "/>
<g clip-path="url(#clip8400)">
<text style="fill:#000000; fill-opacity:1; font-family:Arial,Helvetica Neue,Helvetica,sans-serif; font-size:48px; text-anchor:middle;" transform="rotate(0, 530.32, 1541.47)" x="530.32" y="1541.47">200</text>
</g>
<g clip-path="url(#clip8400)">
<text style="fill:#000000; fill-opacity:1; font-family:Arial,Helvetica Neue,Helvetica,sans-serif; font-size:48px; text-anchor:middle;" transform="rotate(0, 971.054, 1541.47)" x="971.054" y="1541.47">400</text>
</g>
<g clip-path="url(#clip8400)">
<text style="fill:#000000; fill-opacity:1; font-family:Arial,Helvetica Neue,Helvetica,sans-serif; font-size:48px; text-anchor:middle;" transform="rotate(0, 1411.79, 1541.47)" x="1411.79" y="1541.47">600</text>
</g>
<g clip-path="url(#clip8400)">
<text style="fill:#000000; fill-opacity:1; font-family:Arial,Helvetica Neue,Helvetica,sans-serif; font-size:48px; text-anchor:middle;" transform="rotate(0, 1852.52, 1541.47)" x="1852.52" y="1541.47">800</text>
</g>
<g clip-path="url(#clip8400)">
<text style="fill:#000000; fill-opacity:1; font-family:Arial,Helvetica Neue,Helvetica,sans-serif; font-size:48px; text-anchor:middle;" transform="rotate(0, 2293.26, 1541.47)" x="2293.26" y="1541.47">1000</text>
</g>
<g clip-path="url(#clip8400)">
<text style="fill:#000000; fill-opacity:1; font-family:Arial,Helvetica Neue,Helvetica,sans-serif; font-size:48px; text-anchor:end;" transform="rotate(0, 226.454, 1466.35)" x="226.454" y="1466.35">0</text>
</g>
<g clip-path="url(#clip8400)">
<text style="fill:#000000; fill-opacity:1; font-family:Arial,Helvetica Neue,Helvetica,sans-serif; font-size:48px; text-anchor:start;" transform="rotate(0, 96.3127, 1151.11)" x="96.3127" y="1151.11">1×10</text>
</g>
<g clip-path="url(#clip8400)">
<text style="fill:#000000; fill-opacity:1; font-family:Arial,Helvetica Neue,Helvetica,sans-serif; font-size:38px; text-anchor:start;" transform="rotate(0, 204.71, 1123.7)" x="204.71" y="1123.7">9</text>
</g>
<g clip-path="url(#clip8400)">
<text style="fill:#000000; fill-opacity:1; font-family:Arial,Helvetica Neue,Helvetica,sans-serif; font-size:48px; text-anchor:start;" transform="rotate(0, 96.3127, 829.638)" x="96.3127" y="829.638">2×10</text>
</g>
<g clip-path="url(#clip8400)">
<text style="fill:#000000; fill-opacity:1; font-family:Arial,Helvetica Neue,Helvetica,sans-serif; font-size:38px; text-anchor:start;" transform="rotate(0, 204.71, 802.228)" x="204.71" y="802.228">9</text>
</g>
<g clip-path="url(#clip8400)">
<text style="fill:#000000; fill-opacity:1; font-family:Arial,Helvetica Neue,Helvetica,sans-serif; font-size:48px; text-anchor:start;" transform="rotate(0, 96.3127, 508.169)" x="96.3127" y="508.169">3×10</text>
</g>
<g clip-path="url(#clip8400)">
<text style="fill:#000000; fill-opacity:1; font-family:Arial,Helvetica Neue,Helvetica,sans-serif; font-size:38px; text-anchor:start;" transform="rotate(0, 204.71, 480.759)" x="204.71" y="480.759">9</text>
</g>
<g clip-path="url(#clip8400)">
<text style="fill:#000000; fill-opacity:1; font-family:Arial,Helvetica Neue,Helvetica,sans-serif; font-size:48px; text-anchor:start;" transform="rotate(0, 96.3127, 186.7)" x="96.3127" y="186.7">4×10</text>
</g>
<g clip-path="url(#clip8400)">
<text style="fill:#000000; fill-opacity:1; font-family:Arial,Helvetica Neue,Helvetica,sans-serif; font-size:38px; text-anchor:start;" transform="rotate(0, 204.71, 159.29)" x="204.71" y="159.29">9</text>
</g>
<g clip-path="url(#clip8400)">
<text style="fill:#000000; fill-opacity:1; font-family:Arial,Helvetica Neue,Helvetica,sans-serif; font-size:84px; text-anchor:middle;" transform="rotate(0, 1301.61, 73.2)" x="1301.61" y="73.2">pairwise time of YxY matrix</text>
</g>
<polyline clip-path="url(#clip8402)" style="stroke:#009af9; stroke-width:4; stroke-opacity:1; fill:none" points="
  309.953,1448.34 530.32,1443.53 750.687,1428.65 971.054,1390.35 1191.42,1325.56 1411.79,1222.57 1632.16,1058.86 1852.52,836.415 2072.89,541.874 2293.26,160.33 
  
  "/>
<polyline clip-path="url(#clip8402)" style="stroke:#e26f46; stroke-width:4; stroke-opacity:1; fill:none" points="
  309.953,1448.82 530.32,1448.74 750.687,1448.6 971.054,1448.32 1191.42,1448.05 1411.79,1447.68 1632.16,1447.12 1852.52,1446.67 2072.89,1446.09 2293.26,1444.97 
  
  "/>
<path clip-path="url(#clip8400)" d="
M1751.91 386.635 L2280.76 386.635 L2280.76 205.195 L1751.91 205.195  Z
  " fill="#ffffff" fill-rule="evenodd" fill-opacity="1"/>
<polyline clip-path="url(#clip8400)" style="stroke:#000000; stroke-width:4; stroke-opacity:1; fill:none" points="
  1751.91,386.635 2280.76,386.635 2280.76,205.195 1751.91,205.195 1751.91,386.635 
  "/>
<polyline clip-path="url(#clip8400)" style="stroke:#009af9; stroke-width:4; stroke-opacity:1; fill:none" points="
  1775.91,265.675 1919.91,265.675 
  "/>
<g clip-path="url(#clip8400)">
<text style="fill:#000000; fill-opacity:1; font-family:Arial,Helvetica Neue,Helvetica,sans-serif; font-size:48px; text-anchor:start;" transform="rotate(0, 1943.91, 283.175)" x="1943.91" y="283.175">sparse matrix</text>
</g>
<polyline clip-path="url(#clip8400)" style="stroke:#e26f46; stroke-width:4; stroke-opacity:1; fill:none" points="
  1775.91,326.155 1919.91,326.155 
  "/>
<g clip-path="url(#clip8400)">
<text style="fill:#000000; fill-opacity:1; font-family:Arial,Helvetica Neue,Helvetica,sans-serif; font-size:48px; text-anchor:start;" transform="rotate(0, 1943.91, 343.655)" x="1943.91" y="343.655">dense matrix</text>
</g>
</svg>
