<?xml version="1.0" encoding="UTF-8" standalone="no"?>
<!DOCTYPE svg PUBLIC "-//W3C//DTD SVG 1.1//EN"
 "http://www.w3.org/Graphics/SVG/1.1/DTD/svg11.dtd">
<!-- Generated by graphviz version 2.44.1 (20200629.0846)
 -->
<!-- Title: G Pages: 1 -->
<svg width="739pt" height="1408pt"
 viewBox="0.00 0.00 739.00 1407.76" xmlns="http://www.w3.org/2000/svg" xmlns:xlink="http://www.w3.org/1999/xlink">
<g id="graph0" class="graph" transform="scale(1 1) rotate(0) translate(4 1403.76)">
<title>G</title>
<polygon fill="white" stroke="transparent" points="-4,4 -4,-1403.76 735,-1403.76 735,4 -4,4"/>
<!-- n1p1 -->
<!-- n1p2 -->
<!-- n1p1&#45;&gt;n1p2 -->
<!-- n2p1 -->
<!-- n1p1&#45;&gt;n2p1 -->
<!-- S -->
<g id="e29" class="edge">
<title>n1p1:e&#45;&gt;n2p1:w</title>
<path fill="none" stroke="black" d="M1,-1078.25C64.62,-1078.25 -7.78,-1317.06 37,-1362.25 99.67,-1425.49 146.47,-1389.25 235.5,-1389.25 235.5,-1389.25 235.5,-1389.25 430,-1389.25 575.6,-1389.25 582.53,-1251.54 724.88,-1248.31"/>
<polygon fill="black" stroke="black" points="725.02,-1250.06 730,-1248.25 724.98,-1246.56 725.02,-1250.06"/>
<text text-anchor="middle" x="425.5" y="-1378.05" font-family="Serif" font-size="14.00">S</text>
</g>
<!-- n3 -->
<!-- exposure_e -->
<g id="n3" class="node">
<title>n3</title>
<polygon fill="none" stroke="black" points="40.5,-1163.25 40.5,-1323.25 123.5,-1323.25 123.5,-1163.25 40.5,-1163.25"/>
<text text-anchor="start" x="45.5" y="-1239.55" font-family="Serif" font-size="14.00">exposure_e</text>
</g>
<!-- n1p1&#45;&gt;n3 -->
<!-- S -->
<g id="e1" class="edge">
<title>n1p1:e&#45;&gt;n3:w</title>
<path fill="none" stroke="black" d="M1,-1078.25C91.89,-1078.25 -47.56,-1275.32 34.34,-1283.02"/>
<polygon fill="black" stroke="black" points="34.43,-1284.78 39.5,-1283.25 34.58,-1281.28 34.43,-1284.78"/>
<text text-anchor="middle" x="15.77" y="-1169.49" font-family="Serif" font-size="14.00">S</text>
</g>
<!-- n4 -->
<!-- exposure_a -->
<g id="n4" class="node">
<title>n4</title>
<polygon fill="none" stroke="black" points="39.5,-591.25 39.5,-751.25 123.5,-751.25 123.5,-591.25 39.5,-591.25"/>
<text text-anchor="start" x="44.5" y="-667.55" font-family="Serif" font-size="14.00">exposure_a</text>
</g>
<!-- n1p1&#45;&gt;n4 -->
<!-- S -->
<g id="e6" class="edge">
<title>n1p1:e&#45;&gt;n4:w</title>
<path fill="none" stroke="black" d="M1,-1078.25C81.22,-1078.25 -38.14,-726.85 33.5,-711.75"/>
<polygon fill="black" stroke="black" points="33.7,-713.49 38.5,-711.25 33.35,-710.01 33.7,-713.49"/>
<text text-anchor="middle" x="15.27" y="-883.68" font-family="Serif" font-size="14.00">S</text>
</g>
<!-- n5 -->
<!-- exposure_i -->
<g id="n5" class="node">
<title>n5</title>
<polygon fill="none" stroke="black" points="41.5,-985.25 41.5,-1145.25 122.5,-1145.25 122.5,-985.25 41.5,-985.25"/>
<text text-anchor="start" x="46.5" y="-1061.55" font-family="Serif" font-size="14.00">exposure_i</text>
</g>
<!-- n1p1&#45;&gt;n5 -->
<!-- S -->
<g id="e11" class="edge">
<title>n1p1:e&#45;&gt;n5:w</title>
<path fill="none" stroke="black" d="M1,-1078.25C20.44,-1078.25 19.58,-1100.81 35.53,-1104.69"/>
<polygon fill="black" stroke="black" points="35.33,-1106.43 40.5,-1105.25 35.73,-1102.95 35.33,-1106.43"/>
<text text-anchor="middle" x="16.25" y="-1080.55" font-family="Serif" font-size="14.00">S</text>
</g>
<!-- n6 -->
<!-- exposure_i2 -->
<g id="n6" class="node">
<title>n6</title>
<polygon fill="none" stroke="black" points="37.5,-769.25 37.5,-929.25 126.5,-929.25 126.5,-769.25 37.5,-769.25"/>
<text text-anchor="start" x="42.5" y="-845.55" font-family="Serif" font-size="14.00">exposure_i2</text>
</g>
<!-- n1p1&#45;&gt;n6 -->
<!-- S -->
<g id="e16" class="edge">
<title>n1p1:e&#45;&gt;n6:w</title>
<path fill="none" stroke="black" d="M1,-1078.25C84.67,-1078.25 -42.81,-897.29 31.79,-889.51"/>
<polygon fill="black" stroke="black" points="32.09,-891.25 37,-889.25 31.92,-887.75 32.09,-891.25"/>
<text text-anchor="middle" x="14.45" y="-972.35" font-family="Serif" font-size="14.00">S</text>
</g>
<!-- n1p3 -->
<!-- n1p2&#45;&gt;n1p3 -->
<!-- n2p2 -->
<!-- n1p2&#45;&gt;n2p2 -->
<!-- E -->
<g id="e30" class="edge">
<title>n1p2:e&#45;&gt;n2p2:w</title>
<path fill="none" stroke="black" d="M1,-1010.25C73,-1010.25 -14.32,-1281.75 37,-1332.25 100.16,-1394.42 146.87,-1351.25 235.5,-1351.25 235.5,-1351.25 235.5,-1351.25 430,-1351.25 585.91,-1351.25 591.69,-1237.9 694,-1120.25 711.97,-1099.58 702.21,-1069.33 724.99,-1065.63"/>
<polygon fill="black" stroke="black" points="725.14,-1067.37 730,-1065.25 724.88,-1063.88 725.14,-1067.37"/>
<text text-anchor="middle" x="25.38" y="-1049.23" font-family="Serif" font-size="14.00">E</text>
</g>
<!-- n1p2&#45;&gt;n3 -->
<!-- E -->
<g id="e2" class="edge">
<title>n1p2:e&#45;&gt;n3:w</title>
<path fill="none" stroke="black" d="M1,-1010.25C86.59,-1010.25 -42.21,-1195.05 34.17,-1202.99"/>
<polygon fill="black" stroke="black" points="34.42,-1204.75 39.5,-1203.25 34.59,-1201.26 34.42,-1204.75"/>
<text text-anchor="middle" x="15.2" y="-1095.76" font-family="Serif" font-size="14.00">E</text>
</g>
<!-- n7 -->
<!-- asymptomatic_illness -->
<g id="n7" class="node">
<title>n7</title>
<polygon fill="none" stroke="black" points="162.5,-699.25 162.5,-779.25 311.5,-779.25 311.5,-699.25 162.5,-699.25"/>
<text text-anchor="start" x="167.5" y="-735.55" font-family="Serif" font-size="14.00">asymptomatic_illness</text>
</g>
<!-- n1p2&#45;&gt;n7 -->
<!-- E -->
<g id="e21" class="edge">
<title>n1p2:e&#45;&gt;n7:w</title>
<path fill="none" stroke="black" d="M1,-1010.25C48.72,-1010.25 1.87,-614.55 37,-582.25 175.5,-454.91 149.07,-700.04 159.03,-735.14"/>
<polygon fill="black" stroke="black" points="157.65,-736.23 162,-739.25 160.49,-734.18 157.65,-736.23"/>
<text text-anchor="middle" x="19.15" y="-863.73" font-family="Serif" font-size="14.00">E</text>
</g>
<!-- n9 -->
<!-- illness -->
<g id="n9" class="node">
<title>n9</title>
<polygon fill="none" stroke="black" points="211.5,-907.25 211.5,-987.25 261.5,-987.25 261.5,-907.25 211.5,-907.25"/>
<text text-anchor="start" x="216.5" y="-943.55" font-family="Serif" font-size="14.00">illness</text>
</g>
<!-- n1p2&#45;&gt;n9 -->
<!-- E -->
<g id="e43" class="edge">
<title>n1p2:e&#45;&gt;n9:w</title>
<path fill="none" stroke="black" d="M1,-1010.25C23.01,-1010.25 17.29,-986.05 37,-976.25 105.37,-942.27 131.11,-947 205.09,-947.24"/>
<polygon fill="black" stroke="black" points="205.5,-948.99 210.5,-947.25 205.5,-945.49 205.5,-948.99"/>
<text text-anchor="middle" x="94.57" y="-941.14" font-family="Serif" font-size="14.00">E</text>
</g>
<!-- n1p4 -->
<!-- n1p3&#45;&gt;n1p4 -->
<!-- n2p3 -->
<!-- n1p3&#45;&gt;n2p3 -->
<!-- I -->
<g id="e35" class="edge">
<title>n1p3:e&#45;&gt;n2p3:w</title>
<path fill="none" stroke="black" d="M1,-525.25C334.82,-525.25 393.75,-720.14 724.62,-722.24"/>
<polygon fill="black" stroke="black" points="724.99,-723.99 730,-722.25 725.01,-720.49 724.99,-723.99"/>
<text text-anchor="middle" x="362.63" y="-612.62" font-family="Serif" font-size="14.00">I</text>
</g>
<!-- n1p3&#45;&gt;n5 -->
<!-- I -->
<g id="e12" class="edge">
<title>n1p3:e&#45;&gt;n5:w</title>
<path fill="none" stroke="black" d="M1,-525.25C54.99,-525.25 -10.86,-994.49 35.64,-1023.82"/>
<polygon fill="black" stroke="black" points="35.21,-1025.51 40.5,-1025.25 36.2,-1022.16 35.21,-1025.51"/>
<text text-anchor="middle" x="17.74" y="-764.4" font-family="Serif" font-size="14.00">I</text>
</g>
<!-- n10 -->
<!-- illness_progression -->
<g id="n10" class="node">
<title>n10</title>
<polygon fill="none" stroke="black" points="170.5,-346.25 170.5,-426.25 303.5,-426.25 303.5,-346.25 170.5,-346.25"/>
<text text-anchor="start" x="175.5" y="-382.55" font-family="Serif" font-size="14.00">illness_progression</text>
</g>
<!-- n1p3&#45;&gt;n10 -->
<!-- I -->
<g id="e19" class="edge">
<title>n1p3:e&#45;&gt;n10:w</title>
<path fill="none" stroke="black" d="M1,-525.25C36.57,-525.25 98.86,-448.25 126,-425.25 144.42,-409.65 143.75,-389.35 164.42,-386.57"/>
<polygon fill="black" stroke="black" points="164.62,-388.31 169.5,-386.25 164.4,-384.82 164.62,-388.31"/>
<text text-anchor="middle" x="87.37" y="-449.24" font-family="Serif" font-size="14.00">I</text>
</g>
<!-- n1p5 -->
<!-- n1p4&#45;&gt;n1p5 -->
<!-- n2p4 -->
<!-- n1p4&#45;&gt;n2p4 -->
<!-- I2 -->
<g id="e37" class="edge">
<title>n1p4:e&#45;&gt;n2p4:w</title>
<path fill="none" stroke="black" d="M1,-432.25C160.47,-432.25 190.9,-494.64 347,-527.25 434.92,-545.62 457.41,-549.79 547,-556.25 612.16,-560.95 630.58,-571.96 694,-556.25 709.78,-552.34 711.66,-540.12 725,-537.68"/>
<polygon fill="black" stroke="black" points="725.17,-539.42 730,-537.25 724.87,-535.93 725.17,-539.42"/>
<text text-anchor="middle" x="349.04" y="-517.94" font-family="Serif" font-size="14.00">I2</text>
</g>
<!-- n1p4&#45;&gt;n6 -->
<!-- I2 -->
<g id="e17" class="edge">
<title>n1p4:e&#45;&gt;n6:w</title>
<path fill="none" stroke="black" d="M1,-432.25C83.35,-432.25 -41.57,-793.23 31.87,-808.74"/>
<polygon fill="black" stroke="black" points="31.85,-810.49 37,-809.25 32.2,-807.01 31.85,-810.49"/>
<text text-anchor="middle" x="12.02" y="-609.42" font-family="Serif" font-size="14.00">I2</text>
</g>
<!-- n11 -->
<!-- death -->
<g id="n11" class="node">
<title>n11</title>
<polygon fill="none" stroke="black" points="406,-195.25 406,-275.25 453,-275.25 453,-195.25 406,-195.25"/>
<text text-anchor="start" x="411" y="-231.55" font-family="Serif" font-size="14.00">death</text>
</g>
<!-- n1p4&#45;&gt;n11 -->
<!-- I2 -->
<g id="e25" class="edge">
<title>n1p4:e&#45;&gt;n11:w</title>
<path fill="none" stroke="black" d="M1,-432.25C41.21,-432.25 7.06,-376.1 37,-349.25 163.11,-236.17 232.28,-235.26 399.52,-235.25"/>
<polygon fill="black" stroke="black" points="400,-237 405,-235.25 400,-233.5 400,-237"/>
<text text-anchor="middle" x="167.75" y="-247.61" font-family="Serif" font-size="14.00">I2</text>
</g>
<!-- n12 -->
<!-- illness_recovery -->
<g id="n12" class="node">
<title>n12</title>
<polygon fill="none" stroke="black" points="373,-293.25 373,-373.25 485,-373.25 485,-293.25 373,-293.25"/>
<text text-anchor="start" x="378" y="-329.55" font-family="Serif" font-size="14.00">illness_recovery</text>
</g>
<!-- n1p4&#45;&gt;n12 -->
<!-- I2 -->
<g id="e45" class="edge">
<title>n1p4:e&#45;&gt;n12:w</title>
<path fill="none" stroke="black" d="M1,-432.25C84.08,-432.25 82.06,-359.9 162,-337.25 250.15,-312.28 277.63,-332.47 366.87,-333.23"/>
<polygon fill="black" stroke="black" points="366.99,-334.98 372,-333.25 367.01,-331.48 366.99,-334.98"/>
<text text-anchor="middle" x="167.49" y="-322.71" font-family="Serif" font-size="14.00">I2</text>
</g>
<!-- n1p6 -->
<!-- n1p5&#45;&gt;n1p6 -->
<!-- n2p5 -->
<!-- n1p5&#45;&gt;n2p5 -->
<!-- A -->
<g id="e39" class="edge">
<title>n1p5:e&#45;&gt;n2p5:w</title>
<path fill="none" stroke="black" d="M1,-373.25C45.32,-373.25 5.62,-311.55 37,-280.25 79.14,-238.23 105.24,-250.13 162,-232.25 387.9,-161.09 520.7,-39.81 694,-201.25 731.14,-235.85 681.15,-421.52 724.84,-434.53"/>
<polygon fill="black" stroke="black" points="724.81,-436.29 730,-435.25 725.29,-432.83 724.81,-436.29"/>
<text text-anchor="middle" x="275.27" y="-177.87" font-family="Serif" font-size="14.00">A</text>
</g>
<!-- n1p5&#45;&gt;n4 -->
<!-- A -->
<g id="e7" class="edge">
<title>n1p5:e&#45;&gt;n4:w</title>
<path fill="none" stroke="black" d="M1,-373.25C57.13,-373.25 -14.67,-615.38 33.46,-630.51"/>
<polygon fill="black" stroke="black" points="33.3,-632.26 38.5,-631.25 33.81,-628.79 33.3,-632.26"/>
<text text-anchor="middle" x="14.74" y="-491.23" font-family="Serif" font-size="14.00">A</text>
</g>
<!-- n8 -->
<!-- asymptomatic_recovery -->
<g id="n8" class="node">
<title>n8</title>
<polygon fill="none" stroke="black" points="347,-391.25 347,-471.25 511,-471.25 511,-391.25 347,-391.25"/>
<text text-anchor="start" x="352" y="-427.55" font-family="Serif" font-size="14.00">asymptomatic_recovery</text>
</g>
<!-- n1p5&#45;&gt;n8 -->
<!-- A -->
<g id="e34" class="edge">
<title>n1p5:e&#45;&gt;n8:w</title>
<path fill="none" stroke="black" d="M1,-373.25C77.68,-373.25 86.61,-421.24 162,-435.25 227.11,-447.35 244.88,-438.91 311,-435.25 325.19,-434.47 329.84,-431.95 341.81,-431.37"/>
<polygon fill="black" stroke="black" points="342.04,-433.12 347,-431.25 341.96,-429.62 342.04,-433.12"/>
<text text-anchor="middle" x="163.33" y="-425.19" font-family="Serif" font-size="14.00">A</text>
</g>
<!-- n1p7 -->
<!-- n1p6&#45;&gt;n1p7 -->
<!-- n2p6 -->
<!-- n1p6&#45;&gt;n2p6 -->
<!-- R -->
<g id="e41" class="edge">
<title>n1p6:e&#45;&gt;n2p6:w</title>
<path fill="none" stroke="black" d="M1,-124.25C17.49,-124.25 20.78,-118.25 37,-115.25 124.39,-99.11 146.64,-91.25 235.5,-91.25 235.5,-91.25 235.5,-91.25 430,-91.25 548.04,-91.25 608.15,-39.24 694,-120.25 727.55,-151.91 685.54,-319.41 724.8,-332.45"/>
<polygon fill="black" stroke="black" points="724.79,-334.22 730,-333.25 725.33,-330.76 724.79,-334.22"/>
<text text-anchor="middle" x="425" y="-80.05" font-family="Serif" font-size="14.00">R</text>
</g>
<!-- n13 -->
<!-- recovery_progression -->
<g id="n13" class="node">
<title>n13</title>
<polygon fill="none" stroke="black" points="547.5,-210.25 547.5,-290.25 694.5,-290.25 694.5,-210.25 547.5,-210.25"/>
<text text-anchor="start" x="552.5" y="-246.55" font-family="Serif" font-size="14.00">recovery_progression</text>
</g>
<!-- n1p6&#45;&gt;n13 -->
<!-- R -->
<g id="e23" class="edge">
<title>n1p6:e&#45;&gt;n13:w</title>
<path fill="none" stroke="black" d="M1,-124.25C229.34,-124.25 321.23,-59.27 511,-186.25 536.53,-203.34 516.97,-244.97 541.82,-249.79"/>
<polygon fill="black" stroke="black" points="541.87,-251.56 547,-250.25 542.17,-248.07 541.87,-251.56"/>
<text text-anchor="middle" x="269.42" y="-96.43" font-family="Serif" font-size="14.00">R</text>
</g>
<!-- n1p8 -->
<!-- n1p7&#45;&gt;n1p8 -->
<!-- n2p7 -->
<!-- n1p7&#45;&gt;n2p7 -->
<!-- R2 -->
<g id="e44" class="edge">
<title>n1p7:e&#45;&gt;n2p7:w</title>
<path fill="none" stroke="black" d="M1,-57.25C105.24,-57.25 131.26,-53.25 235.5,-53.25 235.5,-53.25 235.5,-53.25 430,-53.25 547.82,-53.25 603.25,-2.11 694,-77.25 737.46,-113.23 675.84,-197.75 724.9,-203"/>
<polygon fill="black" stroke="black" points="724.92,-204.75 730,-203.25 725.09,-201.25 724.92,-204.75"/>
<text text-anchor="middle" x="420.5" y="-42.05" font-family="Serif" font-size="14.00">R2</text>
</g>
<!-- n2p8 -->
<!-- n1p8&#45;&gt;n2p8 -->
<!-- D -->
<g id="e46" class="edge">
<title>n1p8:e&#45;&gt;n2p8:w</title>
<path fill="none" stroke="black" d="M1,-15.25C105.22,-15.25 131.28,-15.25 235.5,-15.25 235.5,-15.25 235.5,-15.25 430,-15.25 547.82,-15.25 599.53,31.15 694,-39.25 727.06,-63.89 690.36,-123.8 724.9,-128.9"/>
<polygon fill="black" stroke="black" points="724.89,-130.66 730,-129.25 725.13,-127.17 724.89,-130.66"/>
<text text-anchor="middle" x="424.5" y="-4.05" font-family="Serif" font-size="14.00">D</text>
</g>
<!-- n2p1&#45;&gt;n2p2 -->
<!-- n2p2&#45;&gt;n2p3 -->
<!-- n2p3&#45;&gt;n2p4 -->
<!-- n2p4&#45;&gt;n2p5 -->
<!-- n2p5&#45;&gt;n2p6 -->
<!-- n2p6&#45;&gt;n2p7 -->
<!-- n2p7&#45;&gt;n2p8 -->
<!-- n3&#45;&gt;n2p2 -->
<!-- E -->
<g id="e5" class="edge">
<title>n3:e&#45;&gt;n2p2:w</title>
<path fill="none" stroke="black" d="M124.5,-1243.25C387.9,-1243.25 444.45,-1163.52 694,-1079.25 708.49,-1074.36 712.11,-1067.08 724.85,-1065.54"/>
<polygon fill="black" stroke="black" points="725.11,-1067.28 730,-1065.25 724.91,-1063.79 725.11,-1067.28"/>
<text text-anchor="middle" x="434.2" y="-1171.67" font-family="Serif" font-size="14.00">E</text>
</g>
<!-- n3&#45;&gt;n7 -->
<!-- E -->
<g id="e26" class="edge">
<title>n3:e&#45;&gt;n7:w</title>
<path fill="none" stroke="black" d="M124.5,-1243.25C178.9,-1243.25 110.39,-770.26 157.11,-740.7"/>
<polygon fill="black" stroke="black" points="157.7,-742.35 162,-739.25 156.71,-738.99 157.7,-742.35"/>
<text text-anchor="middle" x="138.24" y="-979.71" font-family="Serif" font-size="14.00">E</text>
</g>
<!-- n3&#45;&gt;n9 -->
<!-- E -->
<g id="e8" class="edge">
<title>n3:e&#45;&gt;n9:w</title>
<path fill="none" stroke="black" d="M124.5,-1243.25C157.14,-1243.25 174.57,-974.35 205.79,-949.14"/>
<polygon fill="black" stroke="black" points="206.51,-950.74 210.5,-947.25 205.21,-947.49 206.51,-950.74"/>
<text text-anchor="middle" x="162.49" y="-1084.13" font-family="Serif" font-size="14.00">E</text>
</g>
<!-- n4&#45;&gt;n2p2 -->
<!-- E -->
<g id="e10" class="edge">
<title>n4:e&#45;&gt;n2p2:w</title>
<path fill="none" stroke="black" d="M124.5,-671.25C207.82,-671.25 234.07,-658.26 311,-690.25 514.24,-774.78 550.75,-837.13 694,-1004.25 713.29,-1026.75 700.27,-1060.95 724.94,-1064.88"/>
<polygon fill="black" stroke="black" points="724.89,-1066.63 730,-1065.25 725.14,-1063.14 724.89,-1066.63"/>
<text text-anchor="middle" x="483.81" y="-775.27" font-family="Serif" font-size="14.00">E</text>
</g>
<!-- n4&#45;&gt;n7 -->
<!-- E -->
<g id="e27" class="edge">
<title>n4:e&#45;&gt;n7:w</title>
<path fill="none" stroke="black" d="M124.5,-671.25C157.13,-671.25 130.74,-732.02 156.91,-738.66"/>
<polygon fill="black" stroke="black" points="156.83,-740.42 162,-739.25 157.23,-736.94 156.83,-740.42"/>
<text text-anchor="middle" x="138.24" y="-693.9" font-family="Serif" font-size="14.00">E</text>
</g>
<!-- n4&#45;&gt;n9 -->
<!-- E -->
<g id="e9" class="edge">
<title>n4:e&#45;&gt;n9:w</title>
<path fill="none" stroke="black" d="M124.5,-671.25C131.93,-671.25 192.43,-907.8 207.74,-942.92"/>
<polygon fill="black" stroke="black" points="206.34,-943.97 210.5,-947.25 209.29,-942.09 206.34,-943.97"/>
<text text-anchor="middle" x="162.5" y="-798.03" font-family="Serif" font-size="14.00">E</text>
</g>
<!-- n5&#45;&gt;n2p2 -->
<!-- E -->
<g id="e15" class="edge">
<title>n5:e&#45;&gt;n2p2:w</title>
<path fill="none" stroke="black" d="M123.5,-1065.25C391.34,-1065.25 459.58,-1065.25 724.89,-1065.25"/>
<polygon fill="black" stroke="black" points="725,-1067 730,-1065.25 725,-1063.5 725,-1067"/>
<text text-anchor="middle" x="421.62" y="-1054.05" font-family="Serif" font-size="14.00">E</text>
</g>
<!-- n5&#45;&gt;n7 -->
<!-- E -->
<g id="e28" class="edge">
<title>n5:e&#45;&gt;n7:w</title>
<path fill="none" stroke="black" d="M123.5,-1065.25C194.6,-1065.25 94.39,-755.6 156.79,-739.87"/>
<polygon fill="black" stroke="black" points="157.24,-741.58 162,-739.25 156.83,-738.1 157.24,-741.58"/>
<text text-anchor="middle" x="137.77" y="-891.21" font-family="Serif" font-size="14.00">E</text>
</g>
<!-- n5&#45;&gt;n9 -->
<!-- E -->
<g id="e13" class="edge">
<title>n5:e&#45;&gt;n9:w</title>
<path fill="none" stroke="black" d="M123.5,-1065.25C186.88,-1065.25 147.63,-953.62 205.39,-947.51"/>
<polygon fill="black" stroke="black" points="205.6,-949.25 210.5,-947.25 205.42,-945.76 205.6,-949.25"/>
<text text-anchor="middle" x="161.99" y="-995.12" font-family="Serif" font-size="14.00">E</text>
</g>
<!-- n6&#45;&gt;n2p2 -->
<!-- E -->
<g id="e20" class="edge">
<title>n6:e&#45;&gt;n2p2:w</title>
<path fill="none" stroke="black" d="M126,-849.25C211.06,-849.25 230.24,-871.57 311,-898.25 404.59,-929.17 622.38,-1060.78 724.91,-1065.14"/>
<polygon fill="black" stroke="black" points="724.96,-1066.89 730,-1065.25 725.04,-1063.39 724.96,-1066.89"/>
<text text-anchor="middle" x="425.86" y="-940.06" font-family="Serif" font-size="14.00">E</text>
</g>
<!-- n6&#45;&gt;n7 -->
<!-- E -->
<g id="e31" class="edge">
<title>n6:e&#45;&gt;n7:w</title>
<path fill="none" stroke="black" d="M126,-849.25C175.63,-849.25 115.12,-746.85 157,-739.65"/>
<polygon fill="black" stroke="black" points="157.15,-741.39 162,-739.25 156.88,-737.9 157.15,-741.39"/>
<text text-anchor="middle" x="138.97" y="-782.84" font-family="Serif" font-size="14.00">E</text>
</g>
<!-- n6&#45;&gt;n9 -->
<!-- E -->
<g id="e14" class="edge">
<title>n6:e&#45;&gt;n9:w</title>
<path fill="none" stroke="black" d="M126,-849.25C181.71,-849.25 154.81,-941.22 205.36,-946.97"/>
<polygon fill="black" stroke="black" points="205.41,-948.73 210.5,-947.25 205.6,-945.23 205.41,-948.73"/>
<text text-anchor="middle" x="163.23" y="-886.98" font-family="Serif" font-size="14.00">E</text>
</g>
<!-- n7&#45;&gt;n2p5 -->
<!-- A -->
<g id="e33" class="edge">
<title>n7:e&#45;&gt;n2p5:w</title>
<path fill="none" stroke="black" d="M311,-739.25C539.39,-739.25 500.51,-439.69 724.99,-435.3"/>
<polygon fill="black" stroke="black" points="725.02,-437.05 730,-435.25 724.98,-433.55 725.02,-437.05"/>
<text text-anchor="middle" x="515.56" y="-575.95" font-family="Serif" font-size="14.00">A</text>
</g>
<!-- n7&#45;&gt;n8 -->
<!-- A -->
<g id="e38" class="edge">
<title>n7:e&#45;&gt;n8:w</title>
<path fill="none" stroke="black" d="M311,-739.25C378.03,-739.25 283.53,-447.87 341.72,-431.93"/>
<polygon fill="black" stroke="black" points="342.26,-433.63 347,-431.25 341.82,-430.15 342.26,-433.63"/>
<text text-anchor="middle" x="324.02" y="-574.22" font-family="Serif" font-size="14.00">A</text>
</g>
<!-- n8&#45;&gt;n2p6 -->
<!-- R -->
<g id="e42" class="edge">
<title>n8:e&#45;&gt;n2p6:w</title>
<path fill="none" stroke="black" d="M511,-431.25C523.44,-431.25 691.91,-345.84 725.08,-334.49"/>
<polygon fill="black" stroke="black" points="725.58,-336.17 730,-333.25 724.72,-332.78 725.58,-336.17"/>
<text text-anchor="middle" x="615.38" y="-371.11" font-family="Serif" font-size="14.00">R</text>
</g>
<!-- n8&#45;&gt;n13 -->
<!-- R -->
<g id="e4" class="edge">
<title>n8:e&#45;&gt;n13:w</title>
<path fill="none" stroke="black" d="M511,-431.25C591.26,-431.25 470.38,-257.95 542,-250.5"/>
<polygon fill="black" stroke="black" points="542.09,-252.25 547,-250.25 541.92,-248.75 542.09,-252.25"/>
<text text-anchor="middle" x="523.95" y="-329.36" font-family="Serif" font-size="14.00">R</text>
</g>
<!-- n9&#45;&gt;n2p3 -->
<!-- I -->
<g id="e18" class="edge">
<title>n9:e&#45;&gt;n2p3:w</title>
<path fill="none" stroke="black" d="M262.5,-947.25C491.4,-947.25 499.31,-725.54 724.97,-722.29"/>
<polygon fill="black" stroke="black" points="725.01,-724.04 730,-722.25 724.99,-720.54 725.01,-724.04"/>
<text text-anchor="middle" x="493.33" y="-823.48" font-family="Serif" font-size="14.00">I</text>
</g>
<!-- n10&#45;&gt;n2p4 -->
<!-- I2 -->
<g id="e24" class="edge">
<title>n10:e&#45;&gt;n2p4:w</title>
<path fill="none" stroke="black" d="M304.5,-386.25C350.35,-386.25 310.42,-452.62 347,-480.25 482.98,-582.97 556.46,-538.15 724.99,-537.27"/>
<polygon fill="black" stroke="black" points="725,-539.02 730,-537.25 725,-535.52 725,-539.02"/>
<text text-anchor="middle" x="504.94" y="-535.89" font-family="Serif" font-size="14.00">I2</text>
</g>
<!-- n10&#45;&gt;n11 -->
<!-- I2 -->
<g id="e36" class="edge">
<title>n10:e&#45;&gt;n11:w</title>
<path fill="none" stroke="black" d="M304.5,-386.25C353.61,-386.25 317.99,-323.88 347,-284.25 365.85,-258.51 370.74,-237.65 399.72,-235.44"/>
<polygon fill="black" stroke="black" points="400.07,-237.18 405,-235.25 399.94,-233.69 400.07,-237.18"/>
<text text-anchor="middle" x="340.01" y="-273.04" font-family="Serif" font-size="14.00">I2</text>
</g>
<!-- n10&#45;&gt;n12 -->
<!-- I2 -->
<g id="e3" class="edge">
<title>n10:e&#45;&gt;n12:w</title>
<path fill="none" stroke="black" d="M304.5,-386.25C340.85,-386.25 334.58,-338.1 366.94,-333.59"/>
<polygon fill="black" stroke="black" points="367.13,-335.33 372,-333.25 366.89,-331.84 367.13,-335.33"/>
<text text-anchor="middle" x="331.2" y="-348.64" font-family="Serif" font-size="14.00">I2</text>
</g>
<!-- n11&#45;&gt;n2p8 -->
<!-- D -->
<g id="e40" class="edge">
<title>n11:e&#45;&gt;n2p8:w</title>
<path fill="none" stroke="black" d="M454,-235.25C469.46,-235.25 685.86,-141.31 724.87,-130.3"/>
<polygon fill="black" stroke="black" points="725.45,-131.97 730,-129.25 724.75,-128.54 725.45,-131.97"/>
<text text-anchor="middle" x="586.19" y="-171.18" font-family="Serif" font-size="14.00">D</text>
</g>
<!-- n12&#45;&gt;n2p6 -->
<!-- R -->
<g id="e22" class="edge">
<title>n12:e&#45;&gt;n2p6:w</title>
<path fill="none" stroke="black" d="M486,-333.25C592.75,-333.25 620.69,-333.25 724.98,-333.25"/>
<polygon fill="black" stroke="black" points="725,-335 730,-333.25 725,-331.5 725,-335"/>
<text text-anchor="middle" x="602.98" y="-322.05" font-family="Serif" font-size="14.00">R</text>
</g>
<!-- n12&#45;&gt;n13 -->
<!-- R -->
<g id="e32" class="edge">
<title>n12:e&#45;&gt;n13:w</title>
<path fill="none" stroke="black" d="M486,-333.25C529.99,-333.25 503.49,-256.61 541.98,-250.62"/>
<polygon fill="black" stroke="black" points="542.14,-252.36 547,-250.25 541.88,-248.87 542.14,-252.36"/>
<text text-anchor="middle" x="511.48" y="-280.65" font-family="Serif" font-size="14.00">R</text>
</g>
<!-- n13&#45;&gt;n2p7 -->
<!-- R2 -->
<g id="e47" class="edge">
<title>n13:e&#45;&gt;n2p7:w</title>
<path fill="none" stroke="black" d="M694,-250.25C718.26,-250.25 706.02,-210.31 724.58,-204.07"/>
<polygon fill="black" stroke="black" points="725.32,-205.73 730,-203.25 724.8,-202.27 725.32,-205.73"/>
<text text-anchor="middle" x="721.46" y="-230.77" font-family="Serif" font-size="14.00">R2</text>
</g>
</g>
</svg>
